# xmcd
#
# Track frame offsets: 
#        182
#        23022
#        51600
#        77525
#        99272
#        120292
#        141237
#        168192
#        191225
#        211027
#
# Disc length: 3112 seconds
#
# Revision: 2
# Processed by: cddbd v1.5.1PL2 Copyright (c) Steve Scherf et al.
# Submitted via: ExactAudioCopy v0.95a5
#
DISCID=7b0c260a
DTITLE=Rude Boys - Rude Awakening
DYEAR=1990
DGENRE=R&B
TTITLE0=Come on let's do this
TTITLE1=Written all over your face
TTITLE2=I feel for you
TTITLE3=Heaven
TTITLE4=Pressure
TTITLE5=Never get enough of it
TTITLE6=I'm going thru
TTITLE7=Are you lonely for me
TTITLE8=I need you
TTITLE9=Fool for you
EXTD=
EXTT0=
EXTT1=
EXTT2=
EXTT3=
EXTT4=
EXTT5=
EXTT6=
EXTT7=
EXTT8=
EXTT9=
PLAYORDER=
